<mxfile host="Electron" modified="2024-08-18T23:19:45.256Z" agent="Mozilla/5.0 (Windows NT 10.0; Win64; x64) AppleWebKit/537.36 (KHTML, like Gecko) draw.io/24.5.3 Chrome/124.0.6367.207 Electron/30.0.6 Safari/537.36" etag="Z2FUgy9tyjC820BubIWS" version="24.5.3" type="device">
  <diagram name="Page-1" id="CY0wzploL-cDAf5o76GH">
    <mxGraphModel dx="1687" dy="1005" grid="1" gridSize="10" guides="1" tooltips="1" connect="1" arrows="1" fold="1" page="1" pageScale="1" pageWidth="1169" pageHeight="827" math="0" shadow="0">
      <root>
        <mxCell id="0" />
        <mxCell id="1" parent="0" />
        <mxCell id="OJ7WymmhH0rNnSYu_C30-1" value="App" style="whiteSpace=wrap;strokeWidth=2;" vertex="1" parent="1">
          <mxGeometry x="417" y="180" width="43" height="34" as="geometry" />
        </mxCell>
        <mxCell id="OJ7WymmhH0rNnSYu_C30-2" value="Profile" style="whiteSpace=wrap;strokeWidth=2;" vertex="1" parent="1">
          <mxGeometry x="159" y="283" width="62" height="34" as="geometry" />
        </mxCell>
        <mxCell id="OJ7WymmhH0rNnSYu_C30-3" value="Home" style="whiteSpace=wrap;strokeWidth=2;" vertex="1" parent="1">
          <mxGeometry x="272" y="283" width="56" height="34" as="geometry" />
        </mxCell>
        <mxCell id="OJ7WymmhH0rNnSYu_C30-4" value="Login" style="whiteSpace=wrap;strokeWidth=2;" vertex="1" parent="1">
          <mxGeometry x="639" y="283" width="53" height="34" as="geometry" />
        </mxCell>
        <mxCell id="OJ7WymmhH0rNnSYu_C30-5" value="Register" style="whiteSpace=wrap;strokeWidth=2;" vertex="1" parent="1">
          <mxGeometry x="810" y="283" width="74" height="34" as="geometry" />
        </mxCell>
        <mxCell id="OJ7WymmhH0rNnSYu_C30-6" value="BoardUser" style="whiteSpace=wrap;strokeWidth=2;" vertex="1" parent="1">
          <mxGeometry x="121" y="367" width="89" height="34" as="geometry" />
        </mxCell>
        <mxCell id="OJ7WymmhH0rNnSYu_C30-7" value="BoardModerator" style="whiteSpace=wrap;strokeWidth=2;" vertex="1" parent="1">
          <mxGeometry x="260" y="367" width="130" height="34" as="geometry" />
        </mxCell>
        <mxCell id="OJ7WymmhH0rNnSYu_C30-8" value="BoardAdmin" style="whiteSpace=wrap;strokeWidth=2;" vertex="1" parent="1">
          <mxGeometry x="440" y="367" width="101" height="34" as="geometry" />
        </mxCell>
        <mxCell id="OJ7WymmhH0rNnSYu_C30-9" value="Form Validation" style="whiteSpace=wrap;strokeWidth=2;" vertex="1" parent="1">
          <mxGeometry x="591" y="367" width="128" height="34" as="geometry" />
        </mxCell>
        <mxCell id="OJ7WymmhH0rNnSYu_C30-10" value="auth.service" style="whiteSpace=wrap;strokeWidth=2;" vertex="1" parent="1">
          <mxGeometry x="785" y="367" width="104" height="34" as="geometry" />
        </mxCell>
        <mxCell id="OJ7WymmhH0rNnSYu_C30-11" value="storage.service" style="whiteSpace=wrap;strokeWidth=2;" vertex="1" parent="1">
          <mxGeometry x="613" y="451" width="124" height="34" as="geometry" />
        </mxCell>
        <mxCell id="OJ7WymmhH0rNnSYu_C30-12" value="Browser Session Storage" style="whiteSpace=wrap;strokeWidth=2;" vertex="1" parent="1">
          <mxGeometry x="582" y="554" width="187" height="34" as="geometry" />
        </mxCell>
        <mxCell id="OJ7WymmhH0rNnSYu_C30-13" value="auth-interceptor" style="whiteSpace=wrap;strokeWidth=2;" vertex="1" parent="1">
          <mxGeometry x="908" y="451" width="135" height="34" as="geometry" />
        </mxCell>
        <mxCell id="OJ7WymmhH0rNnSYu_C30-14" value="$http service" style="whiteSpace=wrap;strokeWidth=2;" vertex="1" parent="1">
          <mxGeometry x="882" y="554" width="109" height="34" as="geometry" />
        </mxCell>
        <mxCell id="OJ7WymmhH0rNnSYu_C30-15" value="user.service" style="whiteSpace=wrap;strokeWidth=2;" vertex="1" parent="1">
          <mxGeometry x="296" y="451" width="100" height="34" as="geometry" />
        </mxCell>
        <mxCell id="OJ7WymmhH0rNnSYu_C30-16" value="loggedIn" style="curved=1;startArrow=none;endArrow=block;exitX=-0.01;exitY=0.63;entryX=0.51;entryY=0;rounded=0;" edge="1" parent="1" source="OJ7WymmhH0rNnSYu_C30-1" target="OJ7WymmhH0rNnSYu_C30-2">
          <mxGeometry relative="1" as="geometry">
            <Array as="points">
              <mxPoint x="191" y="249" />
            </Array>
          </mxGeometry>
        </mxCell>
        <mxCell id="OJ7WymmhH0rNnSYu_C30-17" value="roles" style="curved=1;startArrow=none;endArrow=block;exitX=-0.01;exitY=0.74;entryX=0.5;entryY=0;rounded=0;" edge="1" parent="1" source="OJ7WymmhH0rNnSYu_C30-1" target="OJ7WymmhH0rNnSYu_C30-3">
          <mxGeometry relative="1" as="geometry">
            <Array as="points">
              <mxPoint x="300" y="249" />
            </Array>
          </mxGeometry>
        </mxCell>
        <mxCell id="OJ7WymmhH0rNnSYu_C30-18" value="" style="curved=1;startArrow=none;endArrow=block;exitX=1;exitY=0.64;entryX=0.5;entryY=0;rounded=0;" edge="1" parent="1" source="OJ7WymmhH0rNnSYu_C30-1" target="OJ7WymmhH0rNnSYu_C30-4">
          <mxGeometry relative="1" as="geometry">
            <Array as="points">
              <mxPoint x="665" y="249" />
            </Array>
          </mxGeometry>
        </mxCell>
        <mxCell id="OJ7WymmhH0rNnSYu_C30-19" value="" style="curved=1;startArrow=none;endArrow=block;exitX=1;exitY=0.58;entryX=0.5;entryY=0;rounded=0;" edge="1" parent="1" source="OJ7WymmhH0rNnSYu_C30-1" target="OJ7WymmhH0rNnSYu_C30-5">
          <mxGeometry relative="1" as="geometry">
            <Array as="points">
              <mxPoint x="847" y="249" />
            </Array>
          </mxGeometry>
        </mxCell>
        <mxCell id="OJ7WymmhH0rNnSYu_C30-20" value="" style="curved=1;startArrow=none;endArrow=block;exitX=-0.01;exitY=0.76;entryX=0.5;entryY=0;rounded=0;" edge="1" parent="1" source="OJ7WymmhH0rNnSYu_C30-3" target="OJ7WymmhH0rNnSYu_C30-6">
          <mxGeometry relative="1" as="geometry">
            <Array as="points">
              <mxPoint x="165" y="342" />
            </Array>
          </mxGeometry>
        </mxCell>
        <mxCell id="OJ7WymmhH0rNnSYu_C30-21" value="" style="curved=1;startArrow=none;endArrow=block;exitX=0.68;exitY=1;entryX=0.5;entryY=0;rounded=0;" edge="1" parent="1" source="OJ7WymmhH0rNnSYu_C30-3" target="OJ7WymmhH0rNnSYu_C30-7">
          <mxGeometry relative="1" as="geometry">
            <Array as="points">
              <mxPoint x="325" y="342" />
            </Array>
          </mxGeometry>
        </mxCell>
        <mxCell id="OJ7WymmhH0rNnSYu_C30-22" value="" style="curved=1;startArrow=none;endArrow=block;exitX=1;exitY=0.68;entryX=0.5;entryY=0;rounded=0;" edge="1" parent="1" source="OJ7WymmhH0rNnSYu_C30-3" target="OJ7WymmhH0rNnSYu_C30-8">
          <mxGeometry relative="1" as="geometry">
            <Array as="points">
              <mxPoint x="491" y="342" />
            </Array>
          </mxGeometry>
        </mxCell>
        <mxCell id="OJ7WymmhH0rNnSYu_C30-23" value="" style="curved=1;startArrow=none;endArrow=block;exitX=0.42;exitY=1;entryX=0.5;entryY=0;rounded=0;" edge="1" parent="1" source="OJ7WymmhH0rNnSYu_C30-4" target="OJ7WymmhH0rNnSYu_C30-9">
          <mxGeometry relative="1" as="geometry">
            <Array as="points">
              <mxPoint x="655" y="342" />
            </Array>
          </mxGeometry>
        </mxCell>
        <mxCell id="OJ7WymmhH0rNnSYu_C30-24" value="" style="curved=1;startArrow=none;endArrow=block;exitX=1;exitY=0.9;entryX=0.16;entryY=0;rounded=0;" edge="1" parent="1" source="OJ7WymmhH0rNnSYu_C30-4" target="OJ7WymmhH0rNnSYu_C30-10">
          <mxGeometry relative="1" as="geometry">
            <Array as="points">
              <mxPoint x="748" y="342" />
            </Array>
          </mxGeometry>
        </mxCell>
        <mxCell id="OJ7WymmhH0rNnSYu_C30-25" value="" style="curved=1;startArrow=none;endArrow=block;exitX=0.5;exitY=1;entryX=0.54;entryY=0;rounded=0;" edge="1" parent="1" source="OJ7WymmhH0rNnSYu_C30-5" target="OJ7WymmhH0rNnSYu_C30-10">
          <mxGeometry relative="1" as="geometry">
            <Array as="points">
              <mxPoint x="847" y="342" />
            </Array>
          </mxGeometry>
        </mxCell>
        <mxCell id="OJ7WymmhH0rNnSYu_C30-26" value="" style="curved=1;startArrow=none;endArrow=block;exitX=0;exitY=0.9;entryX=0.5;entryY=0;rounded=0;" edge="1" parent="1" source="OJ7WymmhH0rNnSYu_C30-10" target="OJ7WymmhH0rNnSYu_C30-11">
          <mxGeometry relative="1" as="geometry">
            <Array as="points">
              <mxPoint x="675" y="426" />
            </Array>
          </mxGeometry>
        </mxCell>
        <mxCell id="OJ7WymmhH0rNnSYu_C30-27" value="" style="curved=1;startArrow=none;endArrow=block;exitX=0.5;exitY=1;entryX=0.5;entryY=0;rounded=0;" edge="1" parent="1" source="OJ7WymmhH0rNnSYu_C30-11" target="OJ7WymmhH0rNnSYu_C30-12">
          <mxGeometry relative="1" as="geometry">
            <Array as="points" />
          </mxGeometry>
        </mxCell>
        <mxCell id="OJ7WymmhH0rNnSYu_C30-28" value="" style="curved=1;startArrow=none;endArrow=block;exitX=1;exitY=0.96;entryX=0.5;entryY=0;rounded=0;" edge="1" parent="1" source="OJ7WymmhH0rNnSYu_C30-10" target="OJ7WymmhH0rNnSYu_C30-13">
          <mxGeometry relative="1" as="geometry">
            <Array as="points">
              <mxPoint x="976" y="426" />
            </Array>
          </mxGeometry>
        </mxCell>
        <mxCell id="OJ7WymmhH0rNnSYu_C30-29" value="" style="curved=1;startArrow=none;endArrow=block;exitX=0.03;exitY=1;entryX=0.04;entryY=0;rounded=0;" edge="1" parent="1" source="OJ7WymmhH0rNnSYu_C30-13" target="OJ7WymmhH0rNnSYu_C30-14">
          <mxGeometry relative="1" as="geometry">
            <Array as="points">
              <mxPoint x="784" y="520" />
            </Array>
          </mxGeometry>
        </mxCell>
        <mxCell id="OJ7WymmhH0rNnSYu_C30-30" value="" style="curved=1;startArrow=none;endArrow=block;exitX=0.5;exitY=1;entryX=0;entryY=0.16;rounded=0;" edge="1" parent="1" source="OJ7WymmhH0rNnSYu_C30-6" target="OJ7WymmhH0rNnSYu_C30-15">
          <mxGeometry relative="1" as="geometry">
            <Array as="points">
              <mxPoint x="165" y="426" />
            </Array>
          </mxGeometry>
        </mxCell>
        <mxCell id="OJ7WymmhH0rNnSYu_C30-31" value="" style="curved=1;startArrow=none;endArrow=block;exitX=0.5;exitY=1;entryX=0.42;entryY=0;rounded=0;" edge="1" parent="1" source="OJ7WymmhH0rNnSYu_C30-7" target="OJ7WymmhH0rNnSYu_C30-15">
          <mxGeometry relative="1" as="geometry">
            <Array as="points">
              <mxPoint x="325" y="426" />
            </Array>
          </mxGeometry>
        </mxCell>
        <mxCell id="OJ7WymmhH0rNnSYu_C30-32" value="" style="curved=1;startArrow=none;endArrow=block;exitX=0.5;exitY=1;entryX=1;entryY=0.07;rounded=0;" edge="1" parent="1" source="OJ7WymmhH0rNnSYu_C30-8" target="OJ7WymmhH0rNnSYu_C30-15">
          <mxGeometry relative="1" as="geometry">
            <Array as="points">
              <mxPoint x="491" y="426" />
            </Array>
          </mxGeometry>
        </mxCell>
        <mxCell id="OJ7WymmhH0rNnSYu_C30-33" value="HttpOnly Cookie" style="curved=1;startArrow=none;endArrow=block;exitX=0.33;exitY=1;entryX=0.4;entryY=0;rounded=0;" edge="1" parent="1" source="OJ7WymmhH0rNnSYu_C30-13" target="OJ7WymmhH0rNnSYu_C30-14">
          <mxGeometry relative="1" as="geometry">
            <Array as="points">
              <mxPoint x="904" y="520" />
            </Array>
          </mxGeometry>
        </mxCell>
        <mxCell id="OJ7WymmhH0rNnSYu_C30-34" value="Request/Response" style="curved=1;startArrow=none;endArrow=block;exitX=0.84;exitY=0;entryX=0.68;entryY=1;rounded=0;" edge="1" parent="1" source="OJ7WymmhH0rNnSYu_C30-14" target="OJ7WymmhH0rNnSYu_C30-13">
          <mxGeometry relative="1" as="geometry">
            <Array as="points">
              <mxPoint x="1048" y="520" />
            </Array>
          </mxGeometry>
        </mxCell>
        <mxCell id="OJ7WymmhH0rNnSYu_C30-35" value="Système" style="whiteSpace=wrap;strokeWidth=2;verticalAlign=top;" vertex="1" parent="1">
          <mxGeometry x="221" y="699" width="914" height="399" as="geometry" />
        </mxCell>
        <mxCell id="OJ7WymmhH0rNnSYu_C30-36" value="Form Validation" style="whiteSpace=wrap;strokeWidth=2;" vertex="1" parent="1">
          <mxGeometry x="266.5" y="749" width="128" height="34" as="geometry" />
        </mxCell>
        <mxCell id="OJ7WymmhH0rNnSYu_C30-37" value="auth.service" style="whiteSpace=wrap;strokeWidth=2;" vertex="1" parent="1">
          <mxGeometry x="644.5" y="749" width="104" height="34" as="geometry" />
        </mxCell>
        <mxCell id="OJ7WymmhH0rNnSYu_C30-38" value="storage.service" style="whiteSpace=wrap;strokeWidth=2;" vertex="1" parent="1">
          <mxGeometry x="366.5" y="852" width="124" height="34" as="geometry" />
        </mxCell>
        <mxCell id="OJ7WymmhH0rNnSYu_C30-39" value="Browser Session Storage" style="whiteSpace=wrap;strokeWidth=2;" vertex="1" parent="1">
          <mxGeometry x="334.5" y="961" width="187" height="34" as="geometry" />
        </mxCell>
        <mxCell id="OJ7WymmhH0rNnSYu_C30-40" value="auth-interceptor" style="whiteSpace=wrap;strokeWidth=2;" vertex="1" parent="1">
          <mxGeometry x="902.5" y="852" width="135" height="34" as="geometry" />
        </mxCell>
        <mxCell id="OJ7WymmhH0rNnSYu_C30-41" value="Router" style="whiteSpace=wrap;strokeWidth=2;" vertex="1" parent="1">
          <mxGeometry x="1004.5" y="749" width="63" height="34" as="geometry" />
        </mxCell>
        <mxCell id="OJ7WymmhH0rNnSYu_C30-42" value="BoardUser/BoardModerator/BoardAdmin" style="whiteSpace=wrap;strokeWidth=2;" vertex="1" parent="1">
          <mxGeometry x="540.5" y="852" width="306" height="34" as="geometry" />
        </mxCell>
        <mxCell id="OJ7WymmhH0rNnSYu_C30-43" value="user.service" style="whiteSpace=wrap;strokeWidth=2;" vertex="1" parent="1">
          <mxGeometry x="676.5" y="1064" width="100" height="34" as="geometry" />
        </mxCell>
        <mxCell id="OJ7WymmhH0rNnSYu_C30-44" value="$http service" style="whiteSpace=wrap;strokeWidth=2;" vertex="1" parent="1">
          <mxGeometry x="915.5" y="961" width="109" height="34" as="geometry" />
        </mxCell>
        <mxCell id="OJ7WymmhH0rNnSYu_C30-45" value="Serveur" style="whiteSpace=wrap;strokeWidth=2;" vertex="1" parent="1">
          <mxGeometry x="979.5" y="1064" width="70" height="34" as="geometry" />
        </mxCell>
        <mxCell id="OJ7WymmhH0rNnSYu_C30-46" value="Utilisateur" style="whiteSpace=wrap;strokeWidth=2;verticalAlign=top;" vertex="1" parent="1">
          <mxGeometry x="1191" y="705" width="276" height="418" as="geometry" />
        </mxCell>
        <mxCell id="OJ7WymmhH0rNnSYu_C30-47" value="Login/Register" style="whiteSpace=wrap;strokeWidth=2;" vertex="1" parent="1">
          <mxGeometry x="1251" y="808" width="120" height="34" as="geometry" />
        </mxCell>
        <mxCell id="OJ7WymmhH0rNnSYu_C30-48" value="Utilisateur" style="whiteSpace=wrap;strokeWidth=2;" vertex="1" parent="1">
          <mxGeometry x="1366" y="743" width="91" height="34" as="geometry" />
        </mxCell>
        <mxCell id="OJ7WymmhH0rNnSYu_C30-49" value="Profile/Home" style="whiteSpace=wrap;strokeWidth=2;" vertex="1" parent="1">
          <mxGeometry x="1345" y="1039" width="112" height="34" as="geometry" />
        </mxCell>
        <mxCell id="OJ7WymmhH0rNnSYu_C30-50" value="Connexion" style="curved=1;startArrow=none;endArrow=block;exitX=0.31;exitY=1;entryX=0.5;entryY=0;rounded=0;" edge="1" parent="1" source="OJ7WymmhH0rNnSYu_C30-48" target="OJ7WymmhH0rNnSYu_C30-47">
          <mxGeometry relative="1" as="geometry">
            <Array as="points">
              <mxPoint x="1311" y="774" />
            </Array>
          </mxGeometry>
        </mxCell>
        <mxCell id="OJ7WymmhH0rNnSYu_C30-51" value="Accès" style="curved=1;startArrow=none;endArrow=block;exitX=0.66;exitY=1;entryX=0.52;entryY=0;rounded=0;" edge="1" parent="1" source="OJ7WymmhH0rNnSYu_C30-48" target="OJ7WymmhH0rNnSYu_C30-49">
          <mxGeometry relative="1" as="geometry">
            <Array as="points">
              <mxPoint x="1406" y="774" />
              <mxPoint x="1406" y="1005" />
            </Array>
          </mxGeometry>
        </mxCell>
        <mxCell id="OJ7WymmhH0rNnSYu_C30-52" value="" style="curved=1;startArrow=none;endArrow=block;exitX=0.4;exitY=1;entryX=1;entryY=0.41;rounded=0;" edge="1" parent="1" source="OJ7WymmhH0rNnSYu_C30-47" target="OJ7WymmhH0rNnSYu_C30-36">
          <mxGeometry relative="1" as="geometry">
            <Array as="points">
              <mxPoint x="1223.5" y="690" />
              <mxPoint x="1231" y="743" />
              <mxPoint x="1223.5" y="724" />
              <mxPoint x="1171" y="763" />
            </Array>
          </mxGeometry>
        </mxCell>
        <mxCell id="OJ7WymmhH0rNnSYu_C30-53" value="" style="curved=1;startArrow=none;endArrow=block;exitX=0.58;exitY=1;entryX=0.99;entryY=0.39;rounded=0;" edge="1" parent="1" source="OJ7WymmhH0rNnSYu_C30-47" target="OJ7WymmhH0rNnSYu_C30-37">
          <mxGeometry relative="1" as="geometry">
            <Array as="points">
              <mxPoint x="1287.5" y="690" />
              <mxPoint x="1287.5" y="724" />
              <mxPoint x="1201" y="793" />
            </Array>
          </mxGeometry>
        </mxCell>
        <mxCell id="OJ7WymmhH0rNnSYu_C30-54" value="" style="curved=1;startArrow=none;endArrow=block;exitX=0;exitY=0.79;entryX=0.5;entryY=0;rounded=0;" edge="1" parent="1" source="OJ7WymmhH0rNnSYu_C30-37" target="OJ7WymmhH0rNnSYu_C30-38">
          <mxGeometry relative="1" as="geometry">
            <Array as="points">
              <mxPoint x="428.5" y="818" />
            </Array>
          </mxGeometry>
        </mxCell>
        <mxCell id="OJ7WymmhH0rNnSYu_C30-55" value="" style="curved=1;startArrow=none;endArrow=block;exitX=0.5;exitY=1;entryX=0.5;entryY=0;rounded=0;" edge="1" parent="1" source="OJ7WymmhH0rNnSYu_C30-38" target="OJ7WymmhH0rNnSYu_C30-39">
          <mxGeometry relative="1" as="geometry">
            <Array as="points" />
          </mxGeometry>
        </mxCell>
        <mxCell id="OJ7WymmhH0rNnSYu_C30-56" value="" style="curved=1;startArrow=none;endArrow=block;exitX=0.99;exitY=0.79;entryX=0.5;entryY=0;rounded=0;" edge="1" parent="1" source="OJ7WymmhH0rNnSYu_C30-37" target="OJ7WymmhH0rNnSYu_C30-40">
          <mxGeometry relative="1" as="geometry">
            <Array as="points">
              <mxPoint x="970.5" y="818" />
            </Array>
          </mxGeometry>
        </mxCell>
        <mxCell id="OJ7WymmhH0rNnSYu_C30-57" value="" style="curved=1;startArrow=none;endArrow=block;exitX=0;exitY=0.13;entryX=0.94;entryY=1;rounded=0;" edge="1" parent="1" source="OJ7WymmhH0rNnSYu_C30-49" target="OJ7WymmhH0rNnSYu_C30-41">
          <mxGeometry relative="1" as="geometry">
            <Array as="points">
              <mxPoint x="1120.5" y="818" />
            </Array>
          </mxGeometry>
        </mxCell>
        <mxCell id="OJ7WymmhH0rNnSYu_C30-58" value="Redirige" style="curved=1;startArrow=none;endArrow=block;exitX=0.68;exitY=1;entryX=0;entryY=0.2;rounded=0;" edge="1" parent="1" source="OJ7WymmhH0rNnSYu_C30-41" target="OJ7WymmhH0rNnSYu_C30-49">
          <mxGeometry relative="1" as="geometry">
            <Array as="points">
              <mxPoint x="1071.5" y="818" />
            </Array>
          </mxGeometry>
        </mxCell>
        <mxCell id="OJ7WymmhH0rNnSYu_C30-59" value="" style="curved=1;startArrow=none;endArrow=block;exitX=-0.01;exitY=0.64;entryX=0.5;entryY=0;rounded=0;" edge="1" parent="1" source="OJ7WymmhH0rNnSYu_C30-41" target="OJ7WymmhH0rNnSYu_C30-42">
          <mxGeometry relative="1" as="geometry">
            <Array as="points">
              <mxPoint x="693.5" y="818" />
            </Array>
          </mxGeometry>
        </mxCell>
        <mxCell id="OJ7WymmhH0rNnSYu_C30-60" value="" style="curved=1;startArrow=none;endArrow=block;exitX=0.5;exitY=1;entryX=0.39;entryY=0;rounded=0;" edge="1" parent="1" source="OJ7WymmhH0rNnSYu_C30-42" target="OJ7WymmhH0rNnSYu_C30-43">
          <mxGeometry relative="1" as="geometry">
            <Array as="points">
              <mxPoint x="693.5" y="1030" />
            </Array>
          </mxGeometry>
        </mxCell>
        <mxCell id="OJ7WymmhH0rNnSYu_C30-61" value="" style="curved=1;startArrow=none;endArrow=block;exitX=0.5;exitY=1;entryX=0.5;entryY=0;rounded=0;" edge="1" parent="1" source="OJ7WymmhH0rNnSYu_C30-40" target="OJ7WymmhH0rNnSYu_C30-44">
          <mxGeometry relative="1" as="geometry">
            <Array as="points" />
          </mxGeometry>
        </mxCell>
        <mxCell id="OJ7WymmhH0rNnSYu_C30-62" value="Envoi Requête" style="curved=1;startArrow=none;endArrow=block;exitX=0.48;exitY=1;entryX=0.26;entryY=0;rounded=0;" edge="1" parent="1" source="OJ7WymmhH0rNnSYu_C30-44" target="OJ7WymmhH0rNnSYu_C30-45">
          <mxGeometry relative="1" as="geometry">
            <Array as="points">
              <mxPoint x="963.5" y="1030" />
            </Array>
          </mxGeometry>
        </mxCell>
        <mxCell id="OJ7WymmhH0rNnSYu_C30-63" value="Réponse" style="curved=1;startArrow=none;endArrow=block;exitX=0.73;exitY=0;entryX=0.79;entryY=1;rounded=0;" edge="1" parent="1" source="OJ7WymmhH0rNnSYu_C30-45" target="OJ7WymmhH0rNnSYu_C30-44">
          <mxGeometry relative="1" as="geometry">
            <Array as="points">
              <mxPoint x="1064.5" y="1030" />
            </Array>
          </mxGeometry>
        </mxCell>
        <mxCell id="OJ7WymmhH0rNnSYu_C30-64" value="Retour d&#39;Info" style="curved=1;startArrow=none;endArrow=block;exitX=0;exitY=0.99;entryX=0.75;entryY=0;rounded=0;" edge="1" parent="1" source="OJ7WymmhH0rNnSYu_C30-44" target="OJ7WymmhH0rNnSYu_C30-43">
          <mxGeometry relative="1" as="geometry">
            <Array as="points">
              <mxPoint x="802.5" y="1030" />
            </Array>
          </mxGeometry>
        </mxCell>
        <mxCell id="OJ7WymmhH0rNnSYu_C30-96" value="" style="group" vertex="1" connectable="0" parent="1">
          <mxGeometry x="50" y="1320" width="3028" height="1148" as="geometry" />
        </mxCell>
        <mxCell id="OJ7WymmhH0rNnSYu_C30-65" value="Utilisateur" style="shape=umlLifeline;perimeter=lifelinePerimeter;whiteSpace=wrap;container=1;dropTarget=0;collapsible=0;recursiveResize=0;outlineConnect=0;portConstraint=eastwest;newEdgeStyle={&quot;edgeStyle&quot;:&quot;elbowEdgeStyle&quot;,&quot;elbow&quot;:&quot;vertical&quot;,&quot;curved&quot;:0,&quot;rounded&quot;:0};size=65;" vertex="1" parent="OJ7WymmhH0rNnSYu_C30-96">
          <mxGeometry width="150" height="1148" as="geometry" />
        </mxCell>
        <mxCell id="OJ7WymmhH0rNnSYu_C30-66" value="App" style="shape=umlLifeline;perimeter=lifelinePerimeter;whiteSpace=wrap;container=1;dropTarget=0;collapsible=0;recursiveResize=0;outlineConnect=0;portConstraint=eastwest;newEdgeStyle={&quot;edgeStyle&quot;:&quot;elbowEdgeStyle&quot;,&quot;elbow&quot;:&quot;vertical&quot;,&quot;curved&quot;:0,&quot;rounded&quot;:0};size=65;" vertex="1" parent="OJ7WymmhH0rNnSYu_C30-96">
          <mxGeometry x="299" width="150" height="1148" as="geometry" />
        </mxCell>
        <mxCell id="OJ7WymmhH0rNnSYu_C30-67" value="Router" style="shape=umlLifeline;perimeter=lifelinePerimeter;whiteSpace=wrap;container=1;dropTarget=0;collapsible=0;recursiveResize=0;outlineConnect=0;portConstraint=eastwest;newEdgeStyle={&quot;edgeStyle&quot;:&quot;elbowEdgeStyle&quot;,&quot;elbow&quot;:&quot;vertical&quot;,&quot;curved&quot;:0,&quot;rounded&quot;:0};size=65;" vertex="1" parent="OJ7WymmhH0rNnSYu_C30-96">
          <mxGeometry x="553" width="150" height="1148" as="geometry" />
        </mxCell>
        <mxCell id="OJ7WymmhH0rNnSYu_C30-68" value="Login/Register" style="shape=umlLifeline;perimeter=lifelinePerimeter;whiteSpace=wrap;container=1;dropTarget=0;collapsible=0;recursiveResize=0;outlineConnect=0;portConstraint=eastwest;newEdgeStyle={&quot;edgeStyle&quot;:&quot;elbowEdgeStyle&quot;,&quot;elbow&quot;:&quot;vertical&quot;,&quot;curved&quot;:0,&quot;rounded&quot;:0};size=65;" vertex="1" parent="OJ7WymmhH0rNnSYu_C30-96">
          <mxGeometry x="753" width="150" height="1148" as="geometry" />
        </mxCell>
        <mxCell id="OJ7WymmhH0rNnSYu_C30-69" value="auth.service" style="shape=umlLifeline;perimeter=lifelinePerimeter;whiteSpace=wrap;container=1;dropTarget=0;collapsible=0;recursiveResize=0;outlineConnect=0;portConstraint=eastwest;newEdgeStyle={&quot;edgeStyle&quot;:&quot;elbowEdgeStyle&quot;,&quot;elbow&quot;:&quot;vertical&quot;,&quot;curved&quot;:0,&quot;rounded&quot;:0};size=65;" vertex="1" parent="OJ7WymmhH0rNnSYu_C30-96">
          <mxGeometry x="1086" width="150" height="1148" as="geometry" />
        </mxCell>
        <mxCell id="OJ7WymmhH0rNnSYu_C30-70" value="storage.service" style="shape=umlLifeline;perimeter=lifelinePerimeter;whiteSpace=wrap;container=1;dropTarget=0;collapsible=0;recursiveResize=0;outlineConnect=0;portConstraint=eastwest;newEdgeStyle={&quot;edgeStyle&quot;:&quot;elbowEdgeStyle&quot;,&quot;elbow&quot;:&quot;vertical&quot;,&quot;curved&quot;:0,&quot;rounded&quot;:0};size=65;" vertex="1" parent="OJ7WymmhH0rNnSYu_C30-96">
          <mxGeometry x="1290" width="150" height="1148" as="geometry" />
        </mxCell>
        <mxCell id="OJ7WymmhH0rNnSYu_C30-71" value="auth-interceptor" style="shape=umlLifeline;perimeter=lifelinePerimeter;whiteSpace=wrap;container=1;dropTarget=0;collapsible=0;recursiveResize=0;outlineConnect=0;portConstraint=eastwest;newEdgeStyle={&quot;edgeStyle&quot;:&quot;elbowEdgeStyle&quot;,&quot;elbow&quot;:&quot;vertical&quot;,&quot;curved&quot;:0,&quot;rounded&quot;:0};size=65;" vertex="1" parent="OJ7WymmhH0rNnSYu_C30-96">
          <mxGeometry x="1490" width="150" height="1148" as="geometry" />
        </mxCell>
        <mxCell id="OJ7WymmhH0rNnSYu_C30-72" value="$http service" style="shape=umlLifeline;perimeter=lifelinePerimeter;whiteSpace=wrap;container=1;dropTarget=0;collapsible=0;recursiveResize=0;outlineConnect=0;portConstraint=eastwest;newEdgeStyle={&quot;edgeStyle&quot;:&quot;elbowEdgeStyle&quot;,&quot;elbow&quot;:&quot;vertical&quot;,&quot;curved&quot;:0,&quot;rounded&quot;:0};size=65;" vertex="1" parent="OJ7WymmhH0rNnSYu_C30-96">
          <mxGeometry x="1787" width="150" height="1148" as="geometry" />
        </mxCell>
        <mxCell id="OJ7WymmhH0rNnSYu_C30-73" value="Serveur" style="shape=umlLifeline;perimeter=lifelinePerimeter;whiteSpace=wrap;container=1;dropTarget=0;collapsible=0;recursiveResize=0;outlineConnect=0;portConstraint=eastwest;newEdgeStyle={&quot;edgeStyle&quot;:&quot;elbowEdgeStyle&quot;,&quot;elbow&quot;:&quot;vertical&quot;,&quot;curved&quot;:0,&quot;rounded&quot;:0};size=65;" vertex="1" parent="OJ7WymmhH0rNnSYu_C30-96">
          <mxGeometry x="2096" width="150" height="1148" as="geometry" />
        </mxCell>
        <mxCell id="OJ7WymmhH0rNnSYu_C30-74" value="Profile/Home" style="shape=umlLifeline;perimeter=lifelinePerimeter;whiteSpace=wrap;container=1;dropTarget=0;collapsible=0;recursiveResize=0;outlineConnect=0;portConstraint=eastwest;newEdgeStyle={&quot;edgeStyle&quot;:&quot;elbowEdgeStyle&quot;,&quot;elbow&quot;:&quot;vertical&quot;,&quot;curved&quot;:0,&quot;rounded&quot;:0};size=65;" vertex="1" parent="OJ7WymmhH0rNnSYu_C30-96">
          <mxGeometry x="2296" width="150" height="1148" as="geometry" />
        </mxCell>
        <mxCell id="OJ7WymmhH0rNnSYu_C30-75" value="BoardUser/BoardModerator/BoardAdmin" style="shape=umlLifeline;perimeter=lifelinePerimeter;whiteSpace=wrap;container=1;dropTarget=0;collapsible=0;recursiveResize=0;outlineConnect=0;portConstraint=eastwest;newEdgeStyle={&quot;edgeStyle&quot;:&quot;elbowEdgeStyle&quot;,&quot;elbow&quot;:&quot;vertical&quot;,&quot;curved&quot;:0,&quot;rounded&quot;:0};size=65;" vertex="1" parent="OJ7WymmhH0rNnSYu_C30-96">
          <mxGeometry x="2496" width="311" height="1148" as="geometry" />
        </mxCell>
        <mxCell id="OJ7WymmhH0rNnSYu_C30-76" value="user.service" style="shape=umlLifeline;perimeter=lifelinePerimeter;whiteSpace=wrap;container=1;dropTarget=0;collapsible=0;recursiveResize=0;outlineConnect=0;portConstraint=eastwest;newEdgeStyle={&quot;edgeStyle&quot;:&quot;elbowEdgeStyle&quot;,&quot;elbow&quot;:&quot;vertical&quot;,&quot;curved&quot;:0,&quot;rounded&quot;:0};size=65;" vertex="1" parent="OJ7WymmhH0rNnSYu_C30-96">
          <mxGeometry x="2878" width="150" height="1148" as="geometry" />
        </mxCell>
        <mxCell id="OJ7WymmhH0rNnSYu_C30-77" value="Tente de se connecter ou s&#39;enregistrer" style="verticalAlign=bottom;endArrow=block;edgeStyle=elbowEdgeStyle;elbow=vertical;curved=0;rounded=0;" edge="1" parent="OJ7WymmhH0rNnSYu_C30-96" source="OJ7WymmhH0rNnSYu_C30-65" target="OJ7WymmhH0rNnSYu_C30-68">
          <mxGeometry relative="1" as="geometry">
            <Array as="points">
              <mxPoint x="460" y="107" />
            </Array>
          </mxGeometry>
        </mxCell>
        <mxCell id="OJ7WymmhH0rNnSYu_C30-78" value="Envoie les informations de connexion" style="verticalAlign=bottom;endArrow=block;edgeStyle=elbowEdgeStyle;elbow=vertical;curved=0;rounded=0;" edge="1" parent="OJ7WymmhH0rNnSYu_C30-96" source="OJ7WymmhH0rNnSYu_C30-68" target="OJ7WymmhH0rNnSYu_C30-69">
          <mxGeometry relative="1" as="geometry">
            <Array as="points">
              <mxPoint x="1003" y="159" />
            </Array>
          </mxGeometry>
        </mxCell>
        <mxCell id="OJ7WymmhH0rNnSYu_C30-79" value="Envoie une requête de connexion" style="verticalAlign=bottom;endArrow=block;edgeStyle=elbowEdgeStyle;elbow=vertical;curved=0;rounded=0;" edge="1" parent="OJ7WymmhH0rNnSYu_C30-96" source="OJ7WymmhH0rNnSYu_C30-69" target="OJ7WymmhH0rNnSYu_C30-73">
          <mxGeometry relative="1" as="geometry">
            <Array as="points">
              <mxPoint x="1675" y="211" />
            </Array>
          </mxGeometry>
        </mxCell>
        <mxCell id="OJ7WymmhH0rNnSYu_C30-80" value="Retourne le JWT" style="verticalAlign=bottom;endArrow=block;edgeStyle=elbowEdgeStyle;elbow=vertical;curved=0;rounded=0;dashed=1;dashPattern=2 3;" edge="1" parent="OJ7WymmhH0rNnSYu_C30-96" source="OJ7WymmhH0rNnSYu_C30-73" target="OJ7WymmhH0rNnSYu_C30-69">
          <mxGeometry relative="1" as="geometry">
            <Array as="points">
              <mxPoint x="1678" y="263" />
            </Array>
          </mxGeometry>
        </mxCell>
        <mxCell id="OJ7WymmhH0rNnSYu_C30-81" value="Sauvegarde le JWT" style="verticalAlign=bottom;endArrow=block;edgeStyle=elbowEdgeStyle;elbow=vertical;curved=0;rounded=0;" edge="1" parent="OJ7WymmhH0rNnSYu_C30-96" source="OJ7WymmhH0rNnSYu_C30-69" target="OJ7WymmhH0rNnSYu_C30-70">
          <mxGeometry relative="1" as="geometry">
            <Array as="points">
              <mxPoint x="1272" y="315" />
            </Array>
          </mxGeometry>
        </mxCell>
        <mxCell id="OJ7WymmhH0rNnSYu_C30-82" value="Retourne l&#39;état de connexion" style="verticalAlign=bottom;endArrow=block;edgeStyle=elbowEdgeStyle;elbow=vertical;curved=0;rounded=0;dashed=1;dashPattern=2 3;" edge="1" parent="OJ7WymmhH0rNnSYu_C30-96" source="OJ7WymmhH0rNnSYu_C30-69" target="OJ7WymmhH0rNnSYu_C30-68">
          <mxGeometry relative="1" as="geometry">
            <Array as="points">
              <mxPoint x="1006" y="367" />
            </Array>
          </mxGeometry>
        </mxCell>
        <mxCell id="OJ7WymmhH0rNnSYu_C30-83" value="Retourne l&#39;état de connexion" style="verticalAlign=bottom;endArrow=block;edgeStyle=elbowEdgeStyle;elbow=vertical;curved=0;rounded=0;dashed=1;dashPattern=2 3;" edge="1" parent="OJ7WymmhH0rNnSYu_C30-96" source="OJ7WymmhH0rNnSYu_C30-68" target="OJ7WymmhH0rNnSYu_C30-65">
          <mxGeometry relative="1" as="geometry">
            <Array as="points">
              <mxPoint x="463" y="419" />
            </Array>
          </mxGeometry>
        </mxCell>
        <mxCell id="OJ7WymmhH0rNnSYu_C30-84" value="Demande l&#39;accès à Profile/Home" style="verticalAlign=bottom;endArrow=block;edgeStyle=elbowEdgeStyle;elbow=vertical;curved=0;rounded=0;" edge="1" parent="OJ7WymmhH0rNnSYu_C30-96" source="OJ7WymmhH0rNnSYu_C30-65" target="OJ7WymmhH0rNnSYu_C30-66">
          <mxGeometry relative="1" as="geometry">
            <Array as="points">
              <mxPoint x="233" y="471" />
            </Array>
          </mxGeometry>
        </mxCell>
        <mxCell id="OJ7WymmhH0rNnSYu_C30-85" value="Vérifie les rôles et redirige" style="verticalAlign=bottom;endArrow=block;edgeStyle=elbowEdgeStyle;elbow=vertical;curved=0;rounded=0;" edge="1" parent="OJ7WymmhH0rNnSYu_C30-96" source="OJ7WymmhH0rNnSYu_C30-66" target="OJ7WymmhH0rNnSYu_C30-67">
          <mxGeometry relative="1" as="geometry">
            <Array as="points">
              <mxPoint x="510" y="523" />
            </Array>
          </mxGeometry>
        </mxCell>
        <mxCell id="OJ7WymmhH0rNnSYu_C30-86" value="Redirige selon les rôles" style="verticalAlign=bottom;endArrow=block;edgeStyle=elbowEdgeStyle;elbow=vertical;curved=0;rounded=0;" edge="1" parent="OJ7WymmhH0rNnSYu_C30-96" source="OJ7WymmhH0rNnSYu_C30-67" target="OJ7WymmhH0rNnSYu_C30-74">
          <mxGeometry relative="1" as="geometry">
            <Array as="points">
              <mxPoint x="1508" y="575" />
            </Array>
          </mxGeometry>
        </mxCell>
        <mxCell id="OJ7WymmhH0rNnSYu_C30-87" value="Affiche la page correspondante" style="verticalAlign=bottom;endArrow=block;edgeStyle=elbowEdgeStyle;elbow=vertical;curved=0;rounded=0;dashed=1;dashPattern=2 3;" edge="1" parent="OJ7WymmhH0rNnSYu_C30-96" source="OJ7WymmhH0rNnSYu_C30-74" target="OJ7WymmhH0rNnSYu_C30-65">
          <mxGeometry relative="1" as="geometry">
            <Array as="points">
              <mxPoint x="1235" y="627" />
            </Array>
          </mxGeometry>
        </mxCell>
        <mxCell id="OJ7WymmhH0rNnSYu_C30-88" value="Accède à une section spécifique selon les rôles" style="verticalAlign=bottom;endArrow=block;edgeStyle=elbowEdgeStyle;elbow=vertical;curved=0;rounded=0;" edge="1" parent="OJ7WymmhH0rNnSYu_C30-96" source="OJ7WymmhH0rNnSYu_C30-65" target="OJ7WymmhH0rNnSYu_C30-75">
          <mxGeometry relative="1" as="geometry">
            <Array as="points">
              <mxPoint x="1372" y="679" />
            </Array>
          </mxGeometry>
        </mxCell>
        <mxCell id="OJ7WymmhH0rNnSYu_C30-89" value="Demande les données utilisateur" style="verticalAlign=bottom;endArrow=block;edgeStyle=elbowEdgeStyle;elbow=vertical;curved=0;rounded=0;" edge="1" parent="OJ7WymmhH0rNnSYu_C30-96" source="OJ7WymmhH0rNnSYu_C30-75" target="OJ7WymmhH0rNnSYu_C30-76">
          <mxGeometry relative="1" as="geometry">
            <Array as="points">
              <mxPoint x="2811" y="731" />
            </Array>
          </mxGeometry>
        </mxCell>
        <mxCell id="OJ7WymmhH0rNnSYu_C30-90" value="Prépare la requête avec JWT" style="verticalAlign=bottom;endArrow=block;edgeStyle=elbowEdgeStyle;elbow=vertical;curved=0;rounded=0;" edge="1" parent="OJ7WymmhH0rNnSYu_C30-96" source="OJ7WymmhH0rNnSYu_C30-76" target="OJ7WymmhH0rNnSYu_C30-71">
          <mxGeometry relative="1" as="geometry">
            <Array as="points">
              <mxPoint x="2270" y="783" />
            </Array>
          </mxGeometry>
        </mxCell>
        <mxCell id="OJ7WymmhH0rNnSYu_C30-91" value="Ajoute le JWT à la requête HTTP" style="verticalAlign=bottom;endArrow=block;edgeStyle=elbowEdgeStyle;elbow=vertical;curved=0;rounded=0;" edge="1" parent="OJ7WymmhH0rNnSYu_C30-96" source="OJ7WymmhH0rNnSYu_C30-71" target="OJ7WymmhH0rNnSYu_C30-72">
          <mxGeometry relative="1" as="geometry">
            <Array as="points">
              <mxPoint x="1722" y="835" />
            </Array>
          </mxGeometry>
        </mxCell>
        <mxCell id="OJ7WymmhH0rNnSYu_C30-92" value="Envoie la requête au serveur" style="verticalAlign=bottom;endArrow=block;edgeStyle=elbowEdgeStyle;elbow=vertical;curved=0;rounded=0;" edge="1" parent="OJ7WymmhH0rNnSYu_C30-96" source="OJ7WymmhH0rNnSYu_C30-72" target="OJ7WymmhH0rNnSYu_C30-73">
          <mxGeometry relative="1" as="geometry">
            <Array as="points">
              <mxPoint x="2025" y="887" />
            </Array>
          </mxGeometry>
        </mxCell>
        <mxCell id="OJ7WymmhH0rNnSYu_C30-93" value="Retourne les données demandées" style="verticalAlign=bottom;endArrow=block;edgeStyle=elbowEdgeStyle;elbow=vertical;curved=0;rounded=0;dashed=1;dashPattern=2 3;" edge="1" parent="OJ7WymmhH0rNnSYu_C30-96" source="OJ7WymmhH0rNnSYu_C30-73" target="OJ7WymmhH0rNnSYu_C30-72">
          <mxGeometry relative="1" as="geometry">
            <Array as="points">
              <mxPoint x="2028" y="939" />
            </Array>
          </mxGeometry>
        </mxCell>
        <mxCell id="OJ7WymmhH0rNnSYu_C30-94" value="Fournit les données utilisateur" style="verticalAlign=bottom;endArrow=block;edgeStyle=elbowEdgeStyle;elbow=vertical;curved=0;rounded=0;dashed=1;dashPattern=2 3;" edge="1" parent="OJ7WymmhH0rNnSYu_C30-96" source="OJ7WymmhH0rNnSYu_C30-72" target="OJ7WymmhH0rNnSYu_C30-75">
          <mxGeometry relative="1" as="geometry">
            <Array as="points">
              <mxPoint x="2265" y="991" />
            </Array>
          </mxGeometry>
        </mxCell>
        <mxCell id="OJ7WymmhH0rNnSYu_C30-95" value="Affiche les données pertinentes" style="verticalAlign=bottom;endArrow=block;edgeStyle=elbowEdgeStyle;elbow=vertical;curved=0;rounded=0;dashed=1;dashPattern=2 3;" edge="1" parent="OJ7WymmhH0rNnSYu_C30-96" source="OJ7WymmhH0rNnSYu_C30-75" target="OJ7WymmhH0rNnSYu_C30-65">
          <mxGeometry relative="1" as="geometry">
            <Array as="points">
              <mxPoint x="1375" y="1043" />
            </Array>
          </mxGeometry>
        </mxCell>
      </root>
    </mxGraphModel>
  </diagram>
</mxfile>
